<mxfile host="app.diagrams.net" modified="2024-06-16T16:39:13.172Z" agent="Mozilla/5.0 (X11; Ubuntu; Linux x86_64; rv:123.0) Gecko/20100101 Firefox/123.0" etag="mhHxgxedOEBU7fdHRq_F" version="24.5.4" type="device" pages="2">
  <diagram name="Page-1" id="two7AJyQK5AV_vLxOYdT">
    <mxGraphModel dx="813" dy="454" grid="1" gridSize="10" guides="1" tooltips="1" connect="1" arrows="1" fold="1" page="1" pageScale="1" pageWidth="850" pageHeight="1100" math="0" shadow="0">
      <root>
        <mxCell id="0" />
        <mxCell id="1" parent="0" />
        <mxCell id="vDNXfYjLbYav8jDJaHbC-3" value="Виртуализация контроллеров разделения аппаратных ресурсов " style="rounded=0;whiteSpace=wrap;html=1;" parent="1" vertex="1">
          <mxGeometry x="360" y="190" width="250" height="60" as="geometry" />
        </mxCell>
        <mxCell id="vDNXfYjLbYav8jDJaHbC-4" value="" style="endArrow=classic;html=1;rounded=0;entryX=0;entryY=0.5;entryDx=0;entryDy=0;" parent="1" target="vDNXfYjLbYav8jDJaHbC-3" edge="1">
          <mxGeometry width="50" height="50" relative="1" as="geometry">
            <mxPoint x="170" y="220" as="sourcePoint" />
            <mxPoint x="450" y="200" as="targetPoint" />
          </mxGeometry>
        </mxCell>
        <mxCell id="vDNXfYjLbYav8jDJaHbC-5" value="" style="endArrow=classic;html=1;rounded=0;exitX=1;exitY=0.5;exitDx=0;exitDy=0;" parent="1" source="vDNXfYjLbYav8jDJaHbC-3" edge="1">
          <mxGeometry width="50" height="50" relative="1" as="geometry">
            <mxPoint x="400" y="250" as="sourcePoint" />
            <mxPoint x="810" y="220" as="targetPoint" />
          </mxGeometry>
        </mxCell>
        <mxCell id="vDNXfYjLbYav8jDJaHbC-6" value="Запрос на запись в память контроллера" style="text;html=1;align=center;verticalAlign=middle;whiteSpace=wrap;rounded=0;" parent="1" vertex="1">
          <mxGeometry x="180" y="190" width="170" height="30" as="geometry" />
        </mxCell>
        <mxCell id="vDNXfYjLbYav8jDJaHbC-16" value="Обработанный запрос" style="text;html=1;align=center;verticalAlign=middle;whiteSpace=wrap;rounded=0;" parent="1" vertex="1">
          <mxGeometry x="630" y="190" width="150" height="30" as="geometry" />
        </mxCell>
        <mxCell id="vDNXfYjLbYav8jDJaHbC-17" value="A0" style="text;html=1;align=center;verticalAlign=middle;whiteSpace=wrap;rounded=0;" parent="1" vertex="1">
          <mxGeometry x="570" y="230" width="60" height="30" as="geometry" />
        </mxCell>
        <mxCell id="hFL_JA1HjYXLilo1OL7Q-1" value="" style="endArrow=classic;html=1;rounded=0;entryX=0.25;entryY=1;entryDx=0;entryDy=0;exitX=0.924;exitY=-0.09;exitDx=0;exitDy=0;exitPerimeter=0;" parent="1" source="hFL_JA1HjYXLilo1OL7Q-3" edge="1">
          <mxGeometry width="50" height="50" relative="1" as="geometry">
            <mxPoint x="423" y="330" as="sourcePoint" />
            <mxPoint x="423" y="250" as="targetPoint" />
          </mxGeometry>
        </mxCell>
        <mxCell id="hFL_JA1HjYXLilo1OL7Q-2" value="" style="endArrow=classic;html=1;rounded=0;entryX=0.25;entryY=1;entryDx=0;entryDy=0;exitX=0.11;exitY=-0.033;exitDx=0;exitDy=0;exitPerimeter=0;" parent="1" source="hFL_JA1HjYXLilo1OL7Q-4" edge="1">
          <mxGeometry width="50" height="50" relative="1" as="geometry">
            <mxPoint x="540" y="330" as="sourcePoint" />
            <mxPoint x="540" y="250" as="targetPoint" />
          </mxGeometry>
        </mxCell>
        <mxCell id="hFL_JA1HjYXLilo1OL7Q-3" value="ARM TrustZone" style="text;html=1;align=center;verticalAlign=middle;whiteSpace=wrap;rounded=0;" parent="1" vertex="1">
          <mxGeometry x="330" y="340" width="100" height="30" as="geometry" />
        </mxCell>
        <mxCell id="hFL_JA1HjYXLilo1OL7Q-4" value="&lt;div&gt;Гипервизор&lt;/div&gt;" style="text;html=1;align=center;verticalAlign=middle;whiteSpace=wrap;rounded=0;" parent="1" vertex="1">
          <mxGeometry x="527.5" y="340" width="125" height="30" as="geometry" />
        </mxCell>
      </root>
    </mxGraphModel>
  </diagram>
  <diagram id="eidY-8nsqPivrirxlFFz" name="Page-2">
    <mxGraphModel dx="1364" dy="795" grid="1" gridSize="10" guides="1" tooltips="1" connect="1" arrows="1" fold="1" page="1" pageScale="1" pageWidth="850" pageHeight="1100" math="0" shadow="0">
      <root>
        <mxCell id="0" />
        <mxCell id="1" parent="0" />
        <mxCell id="N4-1eTYmswgsE6Q3dom0-2" value="&lt;font style=&quot;font-size: 18px;&quot;&gt;Пометить область памяти контроллера как доступную только для чтения&lt;/font&gt;" style="rounded=0;whiteSpace=wrap;html=1;" parent="1" vertex="1">
          <mxGeometry x="350" y="180" width="260" height="70" as="geometry" />
        </mxCell>
        <mxCell id="N4-1eTYmswgsE6Q3dom0-3" value="" style="endArrow=classic;html=1;rounded=0;entryX=0;entryY=0.5;entryDx=0;entryDy=0;" parent="1" edge="1">
          <mxGeometry width="50" height="50" relative="1" as="geometry">
            <mxPoint x="240" y="375" as="sourcePoint" />
            <mxPoint x="740" y="374.5" as="targetPoint" />
          </mxGeometry>
        </mxCell>
        <mxCell id="N4-1eTYmswgsE6Q3dom0-4" value="" style="endArrow=classic;html=1;rounded=0;exitX=1;exitY=0.5;exitDx=0;exitDy=0;entryX=0;entryY=0.279;entryDx=0;entryDy=0;entryPerimeter=0;" parent="1" source="N4-1eTYmswgsE6Q3dom0-2" target="N4-1eTYmswgsE6Q3dom0-11" edge="1">
          <mxGeometry width="50" height="50" relative="1" as="geometry">
            <mxPoint x="400" y="250" as="sourcePoint" />
            <mxPoint x="810" y="220" as="targetPoint" />
            <Array as="points">
              <mxPoint x="640" y="215" />
              <mxPoint x="640" y="340" />
            </Array>
          </mxGeometry>
        </mxCell>
        <mxCell id="N4-1eTYmswgsE6Q3dom0-5" value="&lt;font style=&quot;font-size: 14px;&quot;&gt;Запрос на запись в память контроллера&lt;/font&gt;" style="text;html=1;align=center;verticalAlign=middle;whiteSpace=wrap;rounded=0;" parent="1" vertex="1">
          <mxGeometry x="470" y="380" width="220" height="30" as="geometry" />
        </mxCell>
        <mxCell id="N4-1eTYmswgsE6Q3dom0-7" value="" style="endArrow=classic;html=1;rounded=0;entryX=0.5;entryY=1;entryDx=0;entryDy=0;" parent="1" target="N4-1eTYmswgsE6Q3dom0-2" edge="1">
          <mxGeometry width="50" height="50" relative="1" as="geometry">
            <mxPoint x="480" y="690" as="sourcePoint" />
            <mxPoint x="540" y="250" as="targetPoint" />
          </mxGeometry>
        </mxCell>
        <mxCell id="N4-1eTYmswgsE6Q3dom0-8" value="&lt;font style=&quot;font-size: 16px;&quot;&gt;ARM TrustZone&lt;/font&gt;" style="text;html=1;align=center;verticalAlign=middle;whiteSpace=wrap;rounded=0;" parent="1" vertex="1">
          <mxGeometry x="417.5" y="690" width="125" height="30" as="geometry" />
        </mxCell>
        <mxCell id="N4-1eTYmswgsE6Q3dom0-10" value="&lt;font style=&quot;font-size: 11px;&quot;&gt;A31&lt;/font&gt;" style="text;html=1;align=center;verticalAlign=middle;whiteSpace=wrap;rounded=0;" parent="1" vertex="1">
          <mxGeometry x="568" y="230" width="60" height="30" as="geometry" />
        </mxCell>
        <mxCell id="N4-1eTYmswgsE6Q3dom0-11" value="&lt;font style=&quot;font-size: 18px;&quot;&gt;Сгенерировать исключение попытки записи в область памяти контроллера&lt;/font&gt;" style="rounded=0;whiteSpace=wrap;html=1;" parent="1" vertex="1">
          <mxGeometry x="680" y="320" width="260" height="70" as="geometry" />
        </mxCell>
        <mxCell id="N4-1eTYmswgsE6Q3dom0-12" value="&lt;font style=&quot;font-size: 18px;&quot;&gt;Проверить какая ВМ запрашивает запись&lt;/font&gt;" style="rounded=0;whiteSpace=wrap;html=1;" parent="1" vertex="1">
          <mxGeometry x="1025" y="449" width="250" height="70" as="geometry" />
        </mxCell>
        <mxCell id="N4-1eTYmswgsE6Q3dom0-13" value="&lt;font style=&quot;font-size: 18px;&quot;&gt;Обработать запрос &lt;/font&gt;" style="rounded=0;whiteSpace=wrap;html=1;" parent="1" vertex="1">
          <mxGeometry x="1360" y="548" width="260" height="70" as="geometry" />
        </mxCell>
        <mxCell id="N4-1eTYmswgsE6Q3dom0-14" value="" style="endArrow=classic;html=1;rounded=0;exitX=1;exitY=0.5;exitDx=0;exitDy=0;entryX=-0.003;entryY=0.45;entryDx=0;entryDy=0;entryPerimeter=0;" parent="1" source="N4-1eTYmswgsE6Q3dom0-11" target="N4-1eTYmswgsE6Q3dom0-12" edge="1">
          <mxGeometry width="50" height="50" relative="1" as="geometry">
            <mxPoint x="980" y="480" as="sourcePoint" />
            <mxPoint x="1030" y="430" as="targetPoint" />
            <Array as="points">
              <mxPoint x="970" y="355" />
              <mxPoint x="970" y="480" />
            </Array>
          </mxGeometry>
        </mxCell>
        <mxCell id="N4-1eTYmswgsE6Q3dom0-15" value="&lt;font style=&quot;font-size: 14px;&quot;&gt;Запрос&lt;/font&gt;" style="text;html=1;align=center;verticalAlign=middle;whiteSpace=wrap;rounded=0;" parent="1" vertex="1">
          <mxGeometry x="960" y="449" width="75" height="30" as="geometry" />
        </mxCell>
        <mxCell id="N4-1eTYmswgsE6Q3dom0-16" value="" style="endArrow=classic;html=1;rounded=0;exitX=1;exitY=0.5;exitDx=0;exitDy=0;entryX=0;entryY=0.5;entryDx=0;entryDy=0;" parent="1" source="N4-1eTYmswgsE6Q3dom0-12" target="N4-1eTYmswgsE6Q3dom0-13" edge="1">
          <mxGeometry width="50" height="50" relative="1" as="geometry">
            <mxPoint x="1150" y="390" as="sourcePoint" />
            <mxPoint x="1200" y="340" as="targetPoint" />
            <Array as="points">
              <mxPoint x="1300" y="484" />
              <mxPoint x="1300" y="583" />
            </Array>
          </mxGeometry>
        </mxCell>
        <mxCell id="N4-1eTYmswgsE6Q3dom0-17" value="&lt;font style=&quot;font-size: 14px;&quot;&gt;Запрос&lt;/font&gt;" style="text;html=1;align=center;verticalAlign=middle;whiteSpace=wrap;rounded=0;" parent="1" vertex="1">
          <mxGeometry x="1294" y="558" width="70" height="30" as="geometry" />
        </mxCell>
        <mxCell id="XKv15EnR_aN_UG9g1W0T-1" value="" style="endArrow=classic;html=1;rounded=0;exitX=1;exitY=0.5;exitDx=0;exitDy=0;" parent="1" edge="1">
          <mxGeometry width="50" height="50" relative="1" as="geometry">
            <mxPoint x="1620" y="582.74" as="sourcePoint" />
            <mxPoint x="1820" y="582.74" as="targetPoint" />
          </mxGeometry>
        </mxCell>
        <mxCell id="XKv15EnR_aN_UG9g1W0T-2" value="&lt;font style=&quot;font-size: 14px;&quot;&gt;Обработанный запрос&lt;/font&gt;" style="text;html=1;align=center;verticalAlign=middle;whiteSpace=wrap;rounded=0;" parent="1" vertex="1">
          <mxGeometry x="1632.5" y="550" width="150" height="30" as="geometry" />
        </mxCell>
        <mxCell id="XKv15EnR_aN_UG9g1W0T-3" value="&lt;font style=&quot;font-size: 11px;&quot;&gt;A32&lt;/font&gt;" style="text;html=1;align=center;verticalAlign=middle;whiteSpace=wrap;rounded=0;" parent="1" vertex="1">
          <mxGeometry x="900" y="370" width="60" height="30" as="geometry" />
        </mxCell>
        <mxCell id="XKv15EnR_aN_UG9g1W0T-4" value="&lt;font style=&quot;font-size: 11px;&quot;&gt;A33&lt;/font&gt;" style="text;html=1;align=center;verticalAlign=middle;whiteSpace=wrap;rounded=0;" parent="1" vertex="1">
          <mxGeometry x="1234" y="499" width="60" height="29" as="geometry" />
        </mxCell>
        <mxCell id="XKv15EnR_aN_UG9g1W0T-5" value="&lt;font style=&quot;font-size: 11px;&quot;&gt;A34&lt;/font&gt;" style="text;html=1;align=center;verticalAlign=middle;whiteSpace=wrap;rounded=0;" parent="1" vertex="1">
          <mxGeometry x="1580" y="596" width="52.5" height="30" as="geometry" />
        </mxCell>
        <mxCell id="XKv15EnR_aN_UG9g1W0T-10" value="" style="endArrow=classic;html=1;rounded=0;entryX=0.5;entryY=1;entryDx=0;entryDy=0;" parent="1" edge="1">
          <mxGeometry width="50" height="50" relative="1" as="geometry">
            <mxPoint x="860" y="681" as="sourcePoint" />
            <mxPoint x="860" y="390" as="targetPoint" />
          </mxGeometry>
        </mxCell>
        <mxCell id="XKv15EnR_aN_UG9g1W0T-12" value="" style="endArrow=classic;html=1;rounded=0;entryX=0.5;entryY=1;entryDx=0;entryDy=0;" parent="1" edge="1">
          <mxGeometry width="50" height="50" relative="1" as="geometry">
            <mxPoint x="1223" y="680" as="sourcePoint" />
            <mxPoint x="1222" y="519" as="targetPoint" />
          </mxGeometry>
        </mxCell>
        <mxCell id="XKv15EnR_aN_UG9g1W0T-14" value="" style="endArrow=classic;html=1;rounded=0;" parent="1" edge="1">
          <mxGeometry width="50" height="50" relative="1" as="geometry">
            <mxPoint x="1572.5" y="690" as="sourcePoint" />
            <mxPoint x="1573" y="620" as="targetPoint" />
          </mxGeometry>
        </mxCell>
        <mxCell id="XKv15EnR_aN_UG9g1W0T-15" value="&lt;font style=&quot;font-size: 15px;&quot;&gt;Гипервизор&lt;/font&gt;" style="text;html=1;align=center;verticalAlign=middle;whiteSpace=wrap;rounded=0;" parent="1" vertex="1">
          <mxGeometry x="1512.5" y="690" width="125" height="30" as="geometry" />
        </mxCell>
        <mxCell id="hsEq4wkH1quAXEF0mcn0-1" value="&lt;font style=&quot;font-size: 14px;&quot;&gt;Область памяти контроллера&lt;/font&gt;" style="text;html=1;align=center;verticalAlign=middle;whiteSpace=wrap;rounded=0;" parent="1" vertex="1">
          <mxGeometry x="690" y="140" width="120" height="30" as="geometry" />
        </mxCell>
        <mxCell id="TLijLLlr_I1QhJQq48AN-1" value="" style="edgeStyle=isometricEdgeStyle;endArrow=none;html=1;rounded=0;" parent="1" edge="1">
          <mxGeometry width="50" height="100" relative="1" as="geometry">
            <mxPoint x="640" y="270" as="sourcePoint" />
            <mxPoint x="720" y="180" as="targetPoint" />
            <Array as="points">
              <mxPoint x="690" y="220" />
            </Array>
          </mxGeometry>
        </mxCell>
        <mxCell id="TLijLLlr_I1QhJQq48AN-2" value="" style="endArrow=none;html=1;rounded=0;" parent="1" edge="1">
          <mxGeometry width="50" height="50" relative="1" as="geometry">
            <mxPoint x="860" y="680" as="sourcePoint" />
            <mxPoint x="1572" y="680" as="targetPoint" />
          </mxGeometry>
        </mxCell>
      </root>
    </mxGraphModel>
  </diagram>
</mxfile>
